Coordinates
version=1
nRows=7
nColumns=40
inDegrees=yes

Units are S.I. units (second, meters, Newtons, ...)
Angles are in degrees.

endheader
time	pelvis_tilt	pelvis_list	pelvis_rotation	pelvis_tx	pelvis_ty	pelvis_tz	hip_flexion_r	hip_adduction_r	hip_rotation_r	knee_angle_r	knee_angle_r_beta	ankle_angle_r	subtalar_angle_r	mtp_angle_r	hip_flexion_l	hip_adduction_l	hip_rotation_l	knee_angle_l	knee_angle_l_beta	ankle_angle_l	subtalar_angle_l	mtp_angle_l	lumbar_extension	lumbar_bending	lumbar_rotation	arm_flex_r	arm_add_r	arm_rot_r	elbow_flex_r	pro_sup_r	wrist_flex_r	wrist_dev_r	arm_flex_l	arm_add_l	arm_rot_l	elbow_flex_l	pro_sup_l	wrist_flex_l	wrist_dev_l
      1.21000000	     -4.04112645	     -2.37873386	      3.97453016	     -0.73326954	      0.88179299	     -1.04847860	     29.12480536	     -3.65048951	    -19.15654402	    -18.27523395	     -0.31896300	      6.03050854	     -0.13871468	      8.70510635	      7.40902185	      3.25757192	     11.65057797	    -27.18183533	     -0.47441252	     14.86863856	     -0.52982726	     -3.88523210	     -3.70905071	     -0.66288474	     -7.74286732	     -1.80242897	     -6.29892658	    -13.19317110	     22.57137186	     89.95437384	      0.00000000	      0.00000000	      6.47899437	     10.49810960	     19.25063700	     45.44854102	     89.95437384	      0.00000000	      0.00000000
      1.22000000	     -4.16203909	     -2.24448984	      4.12078726	     -0.72764117	      0.88103392	     -1.04743314	     29.39302193	     -3.76586205	    -18.95264189	    -18.45715402	     -0.32213811	      5.92251346	     -0.17834721	      8.52943106	      7.25750607	      3.22345531	     11.52485228	    -27.42333263	     -0.47862745	     14.63505278	     -0.50068001	     -3.82928362	     -3.55056872	     -0.75154862	     -7.79306921	     -2.01488165	     -6.31345246	    -13.15398327	     22.75646624	     89.95437384	      0.00000000	      0.00000000	      6.57875961	     10.45435292	     19.16380456	     45.73122857	     89.95437384	      0.00000000	      0.00000000
      1.23000000	     -4.08024289	     -2.17994626	      4.45661730	     -0.72144909	      0.88065974	     -1.04671120	     29.16089295	     -3.84253295	    -19.05177557	    -18.40292865	     -0.32119170	      6.28993181	     -0.56658226	      8.33786040	      6.77696458	      3.24517216	     11.22066874	    -27.45301114	     -0.47914543	     15.09675473	     -0.60480136	     -3.94638341	     -3.54033314	     -0.74039336	     -8.14723660	     -1.94436818	     -6.27025639	    -13.43365158	     22.36190413	     89.95437384	      0.00000000	      0.00000000	      6.48041810	     10.53688919	     18.85912145	     46.09188033	     89.95437384	      0.00000000	      0.00000000
      1.24000000	     -3.93396773	     -2.11896017	      4.79383568	     -0.71544190	      0.88033138	     -1.04587246	     28.91727550	     -3.91552803	    -19.10209199	    -18.59246915	     -0.32449980	      6.29853028	     -1.03849995	      8.11836923	      6.30092046	      3.28048890	     10.81256142	    -27.59611005	     -0.48164298	     15.08765570	     -0.64308594	     -4.02792537	     -3.64351281	     -0.70371503	     -8.52255454	     -1.89673231	     -6.20964455	    -13.80841281	     22.22721967	     89.95437384	      0.00000000	      0.00000000	      6.39909693	     10.55657114	     18.75297672	     46.49824163	     89.95437384	      0.00000000	      0.00000000
      1.25000000	     -3.99494552	     -2.01607719	      5.01405017	     -0.70926736	      0.87972056	     -1.04485350	     28.90140539	     -3.99830011	    -18.98954470	    -18.88604451	     -0.32962366	      6.20348233	     -1.24881982	      7.95638044	      6.02410343	      3.30772241	     10.75545098	    -27.72651261	     -0.48391894	     15.08609916	     -0.61719536	     -4.03047059	     -3.50316362	     -0.73788170	     -8.67466673	     -2.06420026	     -6.21802378	    -13.88151262	     22.32433677	     89.95437384	      0.00000000	      0.00000000	      6.43206588	     10.55683673	     18.57841382	     46.65586220	     89.95437384	      0.00000000	      0.00000000
      1.26000000	     -4.10873526	     -1.88586008	      5.19094894	     -0.70313865	      0.87897797	     -1.04358255	     28.94861857	     -4.06842738	    -18.65631507	    -19.32576415	     -0.33729821	      5.96923247	     -1.27298178	      7.78391902	      5.87362907	      3.31500745	     10.56360761	    -28.02390027	     -0.48910933	     14.79681418	     -0.58532462	     -3.96376440	     -3.31044295	     -0.82479206	     -8.74618350	     -2.33206961	     -6.22558543	    -13.84865066	     22.54695371	     89.95437384	      0.00000000	      0.00000000	      6.44072977	     10.51534508	     18.47752422	     46.87323926	     89.95437384	      0.00000000	      0.00000000
      1.27000000	     -3.74504189	     -1.87849473	      5.53656043	     -0.69654980	      0.87896106	     -1.04253881	     28.37188810	     -4.04931352	    -18.79154956	    -19.83757675	     -0.34623103	      5.70294240	     -2.14831838	      7.68514415	      5.06666680	      3.44157985	     10.13301186	    -28.06569818	     -0.48983884	     15.33866611	     -0.60665201	     -4.12200310	     -3.60104820	     -0.68411093	     -9.11085478	     -2.16674535	     -6.17346524	    -14.29815868	     22.16181677	     89.95437384	      0.00000000	      0.00000000	      6.35533656	     10.59306766	     18.22036457	     47.09042010	     89.95437384	      0.00000000	      0.00000000
